<svg width="28" height="28" viewBox="0 0 28 28" fill="none" xmlns="http://www.w3.org/2000/svg">
<path d="M10.6572 24.2356V20.6682C10.6572 19.7576 11.4009 19.0194 12.3182 19.0194H15.6714C16.1119 19.0194 16.5344 19.1931 16.8458 19.5023C17.1573 19.8115 17.3323 20.2309 17.3323 20.6682V24.2356C17.3295 24.6142 17.4791 24.9782 17.7478 25.2469C18.0165 25.5156 18.3821 25.6667 18.7634 25.6667H21.0511C22.1196 25.6694 23.1452 25.25 23.9017 24.5009C24.6582 23.7519 25.0833 22.7348 25.0833 21.6741V11.5113C25.0833 10.6545 24.7008 9.84182 24.0387 9.29211L16.2564 3.12185C14.9026 2.03999 12.963 2.07492 11.6496 3.20481L4.04485 9.29211C3.35154 9.82561 2.93715 10.6407 2.91667 11.5113V21.6638C2.91667 23.8745 4.72195 25.6667 6.94887 25.6667H9.18434C9.97644 25.6667 10.6202 25.0323 10.6259 24.2459L10.6572 24.2356Z" fill="url(#paint0_linear_2_431)"/>
<defs>
<linearGradient id="paint0_linear_2_431" x1="14" y1="26.0001" x2="14" y2="2.00008" gradientUnits="userSpaceOnUse">
<stop stop-color="#F65734"/>
<stop offset="1" stop-color="#FF8D74"/>
</linearGradient>
</defs>
</svg>
