<svg width="48" height="48" viewBox="0 0 48 48" fill="none" xmlns="http://www.w3.org/2000/svg">
<rect width="48" height="48" rx="24" fill="url(#paint0_linear_2_450)"/>
<g clip-path="url(#clip0_2_450)">
<path d="M16.9598 15.7495L17.1614 16.0031C17.1639 16.0007 17.166 15.9996 17.1677 15.9972L28.1623 29.3819L28.1658 29.3798L28.2747 29.5182L28.6269 29.9616C28.6682 32.1412 28.9934 33.3002 32.545 37.1642C32.6395 37.2688 32.8128 37.3979 33.0894 37.424C33.966 37.5084 35.4913 36.3672 36.0916 35.5566C36.4533 35.069 36.5555 34.6277 36.3952 34.2437L36.3661 34.1757L36.3213 34.1164C33.2787 30.0791 32.6773 29.6267 30.1865 28.7771L29.842 28.34L29.6425 28.0864L18.4977 14.4914L16.9209 12.4942C16.6426 11.2386 16.4049 10.4458 15.724 10.0785L15.6596 10.0439L15.5896 10.0258C15.5489 10.015 15.5073 10.0077 15.4628 10.0038C14.8089 9.94036 14.0748 10.6624 13.8654 10.8852C13.4355 11.3415 13.2552 11.7391 13.3147 12.0991L13.3361 12.2368L13.4177 12.3498C13.906 13.0275 14.5635 13.4182 15.3949 13.7747L16.9598 15.7495Z" fill="white"/>
<path d="M30.1564 30.3641C30.1564 30.3641 30.426 30.6773 30.8303 31.1464C30.9308 31.2647 31.0407 31.3909 31.1559 31.5256C31.2717 31.6609 31.3929 31.8032 31.5189 31.9493C31.7699 32.2451 32.0391 32.558 32.3069 32.873C32.4414 33.0296 32.5761 33.1865 32.7092 33.3403C32.8422 33.4942 32.971 33.648 33.096 33.7948C33.2199 33.9441 33.3386 34.0885 33.4489 34.228C33.5046 34.2964 33.5588 34.363 33.6113 34.4286C33.6628 34.4949 33.7122 34.558 33.7612 34.6194C33.8574 34.7408 33.9429 34.8534 34.0202 34.9525C34.0969 35.0533 34.1631 35.1412 34.2173 35.2134C34.2709 35.2866 34.3139 35.3431 34.3413 35.3822C34.37 35.4216 34.3847 35.4425 34.3847 35.4425L34.3749 35.4509C34.3749 35.4509 34.356 35.4324 34.323 35.3975C34.2894 35.363 34.2408 35.3096 34.1802 35.2437C34.1186 35.1785 34.043 35.0972 33.9583 35.0037C33.8742 34.9092 33.7794 34.8042 33.6775 34.6877C33.6257 34.6298 33.5725 34.5691 33.5182 34.506C33.4629 34.4422 33.4069 34.3773 33.3495 34.3103C33.2318 34.1768 33.1111 34.0337 32.9871 33.8855C32.865 33.7345 32.7379 33.5807 32.6108 33.422C32.4837 33.2626 32.3538 33.1032 32.224 32.9417C31.9625 32.6222 31.7034 32.3016 31.4594 31.9999C31.3365 31.8496 31.2189 31.7048 31.1076 31.5671C30.9952 31.4286 30.8898 31.2978 30.7932 31.1768C30.4039 30.6944 30.1455 30.3728 30.1455 30.3728L30.1564 30.3641Z" fill="#959595"/>
<path d="M30.5096 15.7495L30.3073 16.0031C30.3052 16.0007 30.3038 15.9996 30.3013 15.9972L19.3064 29.3819L19.3032 29.3798L19.194 29.5182L18.8425 29.9616C18.8019 32.1412 18.4767 33.3002 14.9251 37.1642C14.8295 37.2688 14.6562 37.3979 14.3797 37.424C13.5041 37.5084 11.9785 36.3672 11.3774 35.5566C11.0158 35.069 10.9135 34.6277 11.0742 34.2437L11.1029 34.1757L11.1477 34.1164C14.1892 30.0791 14.7921 29.6267 17.2822 28.7771L17.6274 28.34L17.8273 28.0864L28.9717 14.4914L30.5492 12.4942C30.8279 11.2386 31.0652 10.4458 31.7468 10.0785L31.8112 10.0439L31.8809 10.0258C31.9215 10.015 31.9635 10.0077 32.0069 10.0038C32.6612 9.94035 33.395 10.6624 33.6047 10.8852C34.0346 11.3415 34.2142 11.7391 34.1557 12.099L34.1337 12.2368L34.0517 12.3498C33.5634 13.0275 32.9049 13.4182 32.0741 13.7747L30.5096 15.7495Z" fill="white"/>
<path d="M17.3126 30.3641C17.3126 30.3641 17.0427 30.6773 16.6391 31.1464C16.5379 31.2647 16.4283 31.3909 16.3125 31.5256C16.1976 31.6609 16.0758 31.8032 15.9494 31.9493C15.6981 32.2451 15.4292 32.558 15.1621 32.873C15.027 33.0296 14.8929 33.1865 14.7599 33.3403C14.6268 33.4942 14.4977 33.648 14.3723 33.7948C14.2487 33.9441 14.1297 34.0885 14.0194 34.228C13.9634 34.2964 13.9099 34.363 13.8577 34.4286C13.8062 34.4949 13.7562 34.558 13.7079 34.6194C13.6119 34.7408 13.5255 34.8534 13.4485 34.9525C13.3725 35.0533 13.306 35.1412 13.2521 35.2134C13.1989 35.2866 13.1551 35.3431 13.1274 35.3822C13.0984 35.4216 13.0837 35.4425 13.0837 35.4425L13.0938 35.4509C13.0938 35.4509 13.1124 35.4324 13.146 35.3975C13.1796 35.363 13.2272 35.3096 13.2892 35.2437C13.3508 35.1785 13.4254 35.0972 13.5097 35.0037C13.5944 34.9092 13.6886 34.8042 13.7912 34.6877C13.843 34.6298 13.8959 34.5691 13.9512 34.506C14.0065 34.4422 14.0625 34.3773 14.1206 34.3103C14.2372 34.1768 14.358 34.0337 14.4815 33.8855C14.6037 33.7345 14.7315 33.5807 14.8579 33.422C14.9864 33.2626 15.1155 33.1032 15.2454 32.9417C15.5062 32.6222 15.766 32.3016 16.0103 31.9999C16.1322 31.8496 16.2502 31.7048 16.3622 31.5671C16.4735 31.4286 16.5782 31.2978 16.6758 31.1768C17.0641 30.6944 17.3238 30.3728 17.3238 30.3728L17.3126 30.3641Z" fill="#959595"/>
</g>
<defs>
<linearGradient id="paint0_linear_2_450" x1="24" y1="-3.6" x2="24" y2="48" gradientUnits="userSpaceOnUse">
<stop stop-color="#FF8D74"/>
<stop offset="1" stop-color="#F75734"/>
</linearGradient>
<clipPath id="clip0_2_450">
<rect width="25.4694" height="27.4286" fill="white" transform="translate(11 10)"/>
</clipPath>
</defs>
</svg>
