<svg width="24" height="20" viewBox="0 0 24 20" fill="none" xmlns="http://www.w3.org/2000/svg">
<path fill-rule="evenodd" clip-rule="evenodd" d="M19.4802 0.232558C21.9717 0.232558 23.9989 2.23963 23.9989 4.70549L24 7.60112C24 7.82214 23.9118 8.03646 23.7544 8.19274C23.5981 8.35014 23.3849 8.43833 23.1628 8.43833C22.2843 8.43833 21.5699 9.13935 21.5699 10.0011C21.5699 10.8629 22.2843 11.5639 23.1628 11.5639C23.6249 11.5639 24 11.939 24 12.4011V15.2945C24 17.7604 21.9728 19.7674 19.4813 19.7674H4.5187C2.02716 19.7674 0 17.7604 0 15.2945V12.4011C0 11.939 0.37507 11.5639 0.837209 11.5639C1.71572 11.5639 2.43014 10.8629 2.43014 10.0011C2.43014 9.16391 1.74474 8.53209 0.837209 8.53209C0.61507 8.53209 0.40186 8.44391 0.245581 8.28651C0.088186 8.13023 0 7.91591 0 7.69488L0.00111628 4.70549C0.00111628 2.23963 2.02828 0.232558 4.51981 0.232558H19.4802ZM19.4802 1.90698H14.9012L14.9019 4.05157C14.9019 4.51371 14.5268 4.88878 14.0647 4.88878C13.6025 4.88878 13.2275 4.51371 13.2275 4.05157L13.2268 1.90698H4.51981C2.95144 1.90698 1.67553 3.16279 1.67553 4.70549L1.67442 6.95814C3.08874 7.3053 4.10456 8.51758 4.10456 10.0011C4.10456 11.4992 3.07088 12.7628 1.67442 13.13V15.2945C1.67442 16.8372 2.95033 18.093 4.5187 18.093H13.2268L13.2275 16.4314C13.2275 15.9682 13.6025 15.5942 14.0647 15.5942C14.5268 15.5942 14.9019 15.9682 14.9019 16.4314L14.9012 18.093H19.4813C21.0497 18.093 22.3256 16.8372 22.3256 15.2945V13.13C20.9291 12.7628 19.8954 11.4992 19.8954 10.0011C19.8954 8.50195 20.928 7.23944 22.3256 6.87219L22.3245 4.70549C22.3245 3.16279 21.0486 1.90698 19.4802 1.90698ZM14.0647 6.37712C14.5268 6.37712 14.9019 6.75219 14.9019 7.21433V12.5959C14.9019 13.058 14.5268 13.4331 14.0647 13.4331C13.6025 13.4331 13.2275 13.058 13.2275 12.5959V7.21433C13.2275 6.75219 13.6025 6.37712 14.0647 6.37712Z" fill="#73848C"/>
</svg>
